   <svg
        fill="#00bcff"
        xmlns="http://www.w3.org/2000/svg"
        xmlns:svg="http://www.w3.org/2000/svg"
        xmlns:xlink="http://www.w3.org/1999/xlink"
        viewBox="0 0 591.56 703.47"
        preserveAspectRatio="xMidYMid meet"
      >
        <g
          transform="matrix(1, 0, 0, 1, 295.7778015136719, 351.73541259765625)"
        >
          <path
            d="M-0,-349.23 C-161.97,-349.23 -293.27,-217.93 -293.27,-55.96 C-293.27,80.17 -200.38,194.3 -74.62,227.36 C-92.92,183.22 -103.13,134.87 -103.13,84.11 C-103.13,-16.91 -62.72,-108.18 2.25,-175.59 C69.75,-107.81 111.52,-14.38 111.52,88.83 C111.52,136.9 101.82,182.5 85.23,224.63 C205.62,188.11 293.27,76.36 293.27,-55.96 C293.27,-217.93 161.97,-349.23 -0,-349.23 ZM85.23,224.63 C58.25,232.82 29.65,237.31 -0,237.31 C-25.84,237.31 -50.75,233.63 -74.62,227.36 C-55.71,272.96 -28.15,314.08 6.15,348.52 C40.21,313.19 66.96,271.05 85.23,224.63 Z"
            fill-rule="evenodd"
          />
        </g>
      </svg>